<svg width="207" height="27" viewBox="0 0 207 27" fill="none" xmlns="http://www.w3.org/2000/svg">
<path d="M14.3154 12.9332C15.8484 13.0792 17.1016 13.6875 18.0749 14.7582C19.0726 15.8045 19.5714 17.1915 19.5714 18.9192C19.5714 21.1092 18.8414 22.8369 17.3814 24.1022C15.9214 25.3675 13.9261 26.0002 11.3954 26.0002H0.481934V0.450206H10.9939C13.5246 0.450206 15.5199 1.04637 16.9799 2.23871C18.4643 3.40671 19.2064 5.02487 19.2064 7.09321C19.2064 8.72354 18.7684 10.0375 17.8924 11.0352C17.0164 12.0085 15.8241 12.6412 14.3154 12.9332ZM9.67993 4.72071H6.39493V10.9257H9.67993C10.7993 10.9257 11.6753 10.658 12.3079 10.1227C12.9649 9.56304 13.2934 8.79654 13.2934 7.82321C13.2934 6.84987 12.9771 6.09554 12.3444 5.56021C11.7118 5.00054 10.8236 4.72071 9.67993 4.72071ZM10.0814 21.5107C11.1764 21.5107 12.0403 21.2187 12.6729 20.6347C13.3056 20.0264 13.6219 19.199 13.6219 18.1527C13.6219 17.2037 13.2934 16.4494 12.6364 15.8897C12.0038 15.3057 11.1521 15.0137 10.0814 15.0137H6.39493V21.5107H10.0814Z" fill="#DC143C"/>
<path d="M25.8301 5.85221C25.1731 6.50921 24.3458 6.83771 23.3481 6.83771C22.3504 6.83771 21.5231 6.50921 20.8661 5.85221C20.2334 5.19521 19.9171 4.39221 19.9171 3.44321C19.9171 2.46987 20.2334 1.65471 20.8661 0.997705C21.5231 0.340706 22.3504 0.012207 23.3481 0.012207C24.3458 0.012207 25.1731 0.352874 25.8301 1.03421C26.4871 1.69121 26.8156 2.49421 26.8156 3.44321C26.8156 4.39221 26.4871 5.19521 25.8301 5.85221ZM20.5376 26.0002V8.40721H26.1221V26.0002H20.5376Z" fill="#DC143C"/>
<path d="M35.2734 26.5477C32.7427 26.5477 30.7231 26.0002 29.2144 24.9052C27.7057 23.8102 26.9514 22.411 26.9514 20.7077H32.4994C32.4994 21.316 32.7671 21.8149 33.3024 22.2042C33.8377 22.5935 34.5312 22.7882 35.3829 22.7882C35.9912 22.7882 36.4779 22.6422 36.8429 22.3502C37.2322 22.0582 37.4269 21.6567 37.4269 21.1457C37.4269 20.3427 37.0011 19.8439 36.1494 19.6492L31.8424 18.5542C30.4067 18.1892 29.3117 17.5687 28.5574 16.6927C27.8031 15.8167 27.4259 14.746 27.4259 13.4807C27.4259 11.826 28.1072 10.4877 29.4699 9.46571C30.8326 8.41937 32.6576 7.89621 34.9449 7.89621C37.4756 7.89621 39.4101 8.38287 40.7484 9.35621C42.1111 10.3295 42.7924 11.6679 42.7924 13.3712H37.2809C37.2809 12.7629 37.0619 12.2884 36.6239 11.9477C36.2102 11.607 35.6262 11.4367 34.8719 11.4367C34.2636 11.4367 33.7769 11.5705 33.4119 11.8382C33.0469 12.1059 32.8644 12.4587 32.8644 12.8967C32.8644 13.6754 33.3632 14.1985 34.3609 14.4662L38.5219 15.5977C39.9089 15.9627 40.9917 16.571 41.7704 17.4227C42.5734 18.25 42.9749 19.272 42.9749 20.4887C42.9749 22.3137 42.2814 23.7859 40.8944 24.9052C39.5317 26.0002 37.6581 26.5477 35.2734 26.5477Z" fill="#DC143C"/>
<path d="M50.9847 26.5477C48.4541 26.5477 46.4344 26.0002 44.9257 24.9052C43.4171 23.8102 42.6627 22.411 42.6627 20.7077H48.2107C48.2107 21.316 48.4784 21.8149 49.0137 22.2042C49.5491 22.5935 50.2426 22.7882 51.0942 22.7882C51.7026 22.7882 52.1892 22.6422 52.5542 22.3502C52.9436 22.0582 53.1382 21.6567 53.1382 21.1457C53.1382 20.3427 52.7124 19.8439 51.8607 19.6492L47.5537 18.5542C46.1181 18.1892 45.0231 17.5687 44.2687 16.6927C43.5144 15.8167 43.1372 14.746 43.1372 13.4807C43.1372 11.826 43.8186 10.4877 45.1812 9.46571C46.5439 8.41937 48.3689 7.89621 50.6562 7.89621C53.1869 7.89621 55.1214 8.38287 56.4597 9.35621C57.8224 10.3295 58.5037 11.6679 58.5037 13.3712H52.9922C52.9922 12.7629 52.7732 12.2884 52.3352 11.9477C51.9216 11.607 51.3376 11.4367 50.5832 11.4367C49.9749 11.4367 49.4882 11.5705 49.1232 11.8382C48.7582 12.1059 48.5757 12.4587 48.5757 12.8967C48.5757 13.6754 49.0746 14.1985 50.0722 14.4662L54.2332 15.5977C55.6202 15.9627 56.7031 16.571 57.4817 17.4227C58.2847 18.25 58.6862 19.272 58.6862 20.4887C58.6862 22.3137 57.9927 23.7859 56.6057 24.9052C55.2431 26.0002 53.3694 26.5477 50.9847 26.5477Z" fill="#DC143C"/>
<path d="M59.834 26.0002V0.450206H69.47C73.4364 0.450206 76.5997 1.67904 78.96 4.13671C81.3204 6.59437 82.5005 9.62387 82.5005 13.2252C82.5005 16.8265 81.3204 19.856 78.96 22.3137C76.624 24.7714 73.4607 26.0002 69.47 26.0002H59.834ZM65.747 21.0362H68.9225C71.3072 21.0362 73.1444 20.2819 74.434 18.7732C75.748 17.2402 76.405 15.3909 76.405 13.2252C76.405 11.0595 75.748 9.22237 74.434 7.71371C73.1444 6.18071 71.3072 5.41421 68.9225 5.41421H65.747V21.0362Z" fill="#DC143C"/>
<path d="M90.2839 26.4747C87.7289 26.4747 85.7093 25.6109 84.2249 23.8832C82.7406 22.1555 81.9984 19.929 81.9984 17.2037C81.9984 14.527 82.7649 12.3127 84.2979 10.5607C85.8309 8.80871 87.8506 7.93271 90.3569 7.93271C91.5979 7.93271 92.7051 8.20037 93.6784 8.73571C94.6518 9.27104 95.3818 10.001 95.8684 10.9257V8.40721H101.416V26.0002H95.8684V23.5182C95.3818 24.3942 94.6274 25.112 93.6054 25.6717C92.6078 26.207 91.5006 26.4747 90.2839 26.4747ZM91.8899 21.8392C93.2283 21.8392 94.2624 21.4012 94.9924 20.5252C95.7224 19.6492 96.0874 18.542 96.0874 17.2037C96.0874 15.8897 95.7224 14.7947 94.9924 13.9187C94.2624 13.0427 93.2283 12.6047 91.8899 12.6047C90.6246 12.6047 89.6026 13.0305 88.8239 13.8822C88.0696 14.7339 87.6924 15.841 87.6924 17.2037C87.6924 18.5664 88.0696 19.6857 88.8239 20.5617C89.6026 21.4134 90.6246 21.8392 91.8899 21.8392Z" fill="#DC143C"/>
<path d="M112.784 21.6567C113.563 21.6567 114.208 21.6202 114.719 21.5472V26.0002C113.648 26.1949 112.407 26.2922 110.996 26.2922C110.363 26.2922 109.803 26.2557 109.317 26.1827C108.83 26.1097 108.283 25.9515 107.674 25.7082C107.066 25.4405 106.567 25.0877 106.178 24.6497C105.788 24.2117 105.448 23.579 105.156 22.7517C104.888 21.9244 104.754 20.951 104.754 19.8317V12.8237H101.98V8.40721H104.754V3.18771H110.339V8.40721H114.317V12.8237H110.339V18.6637C110.339 19.856 110.546 20.659 110.959 21.0727C111.373 21.462 111.981 21.6567 112.784 21.6567Z" fill="#DC143C"/>
<path d="M132.712 16.2912C132.712 17.0212 132.664 17.8364 132.566 18.7367H119.572C119.621 19.8804 120.01 20.7685 120.74 21.4012C121.47 22.0339 122.456 22.3502 123.697 22.3502C125.4 22.3502 126.495 21.8027 126.982 20.7077H132.457C132.189 22.4354 131.24 23.8467 129.61 24.9417C128.004 26.0124 126.033 26.5477 123.697 26.5477C120.704 26.5477 118.344 25.7204 116.616 24.0657C114.888 22.411 114.024 20.1237 114.024 17.2037C114.024 14.3324 114.888 12.0694 116.616 10.4147C118.344 8.73571 120.643 7.89621 123.514 7.89621C126.24 7.89621 128.454 8.67487 130.157 10.2322C131.861 11.7895 132.712 13.8092 132.712 16.2912ZM119.572 15.2692H127.201C127.177 14.1012 126.848 13.2009 126.215 12.5682C125.583 11.9355 124.67 11.6192 123.478 11.6192C122.286 11.6192 121.337 11.9599 120.631 12.6412C119.95 13.2982 119.597 14.1742 119.572 15.2692Z" fill="#DC143C"/>
<path d="M138.89 25.3067C138.209 26.0124 137.357 26.3652 136.335 26.3652C135.313 26.3652 134.449 26.0124 133.744 25.3067C133.062 24.601 132.722 23.7615 132.722 22.7882C132.722 21.7905 133.062 20.951 133.744 20.2697C134.449 19.564 135.313 19.2112 136.335 19.2112C137.357 19.2112 138.209 19.564 138.89 20.2697C139.596 20.951 139.949 21.7905 139.949 22.7882C139.949 23.7615 139.596 24.601 138.89 25.3067Z" fill="#DC143C"/>
<path d="M149.375 26.5477C146.504 26.5477 144.216 25.696 142.513 23.9927C140.81 22.265 139.958 20.002 139.958 17.2037C139.958 14.4054 140.81 12.1545 142.513 10.4512C144.216 8.74787 146.504 7.89621 149.375 7.89621C151.979 7.89621 154.096 8.54104 155.726 9.83071C157.356 11.1204 158.281 12.8724 158.5 15.0867H152.915C152.502 13.432 151.334 12.6047 149.411 12.6047C148.195 12.6047 147.246 13.0062 146.564 13.8092C145.883 14.6122 145.542 15.7437 145.542 17.2037C145.542 18.6637 145.883 19.7952 146.564 20.5982C147.246 21.4012 148.195 21.8027 149.411 21.8027C151.334 21.8027 152.502 21.024 152.915 19.4667H158.5C158.281 21.6324 157.356 23.36 155.726 24.6497C154.096 25.915 151.979 26.5477 149.375 26.5477Z" fill="#DC143C"/>
<path d="M175.277 23.9197C173.525 25.6717 171.164 26.5477 168.196 26.5477C165.227 26.5477 162.855 25.6717 161.078 23.9197C159.302 22.1677 158.414 19.929 158.414 17.2037C158.414 14.4784 159.302 12.2519 161.078 10.5242C162.855 8.77221 165.227 7.89621 168.196 7.89621C171.164 7.89621 173.525 8.77221 175.277 10.5242C177.053 12.2519 177.941 14.4784 177.941 17.2037C177.941 19.929 177.053 22.1677 175.277 23.9197ZM168.196 21.8027C169.485 21.8027 170.507 21.3769 171.262 20.5252C172.016 19.6735 172.393 18.5664 172.393 17.2037C172.393 15.841 172.016 14.7339 171.262 13.8822C170.507 13.0305 169.485 12.6047 168.196 12.6047C166.882 12.6047 165.848 13.0305 165.093 13.8822C164.363 14.7339 163.998 15.841 163.998 17.2037C163.998 18.5664 164.363 19.6735 165.093 20.5252C165.848 21.3769 166.882 21.8027 168.196 21.8027Z" fill="#DC143C"/>
<path d="M178.649 26.0002V8.40721H184.233V10.9622C184.623 10.0619 185.255 9.33187 186.131 8.77221C187.032 8.21254 188.078 7.93271 189.27 7.93271C192.044 7.93271 193.881 9.01554 194.782 11.1812C195.268 10.2079 196.011 9.42921 197.008 8.84521C198.006 8.23687 199.137 7.93271 200.403 7.93271C204.564 7.93271 206.644 10.3174 206.644 15.0867V26.0002H201.023V16.1087C201.023 13.797 200.147 12.6412 198.395 12.6412C196.424 12.6412 195.439 14.0769 195.439 16.9482V26.0002H189.818V16.0722C189.818 13.7849 188.954 12.6412 187.226 12.6412C186.253 12.6412 185.511 12.9697 185 13.6267C184.489 14.2594 184.233 15.3665 184.233 16.9482V26.0002H178.649Z" fill="#DC143C"/>
</svg>
