<svg width="21" height="20" viewBox="0 0 21 20" fill="none" xmlns="http://www.w3.org/2000/svg">
<path d="M20.1191 18.3124L16.4113 14.6324C17.8505 12.8368 18.5475 10.5577 18.3589 8.26367C18.1704 5.96967 17.1105 3.83515 15.3974 2.29901C13.6843 0.762871 11.448 -0.0581246 9.14852 0.00483581C6.84901 0.0677962 4.66099 1.00993 3.03438 2.63751C1.40777 4.26509 0.466194 6.4544 0.403271 8.75529C0.340348 11.0562 1.16086 13.2937 2.69608 15.0079C4.23131 16.722 6.36456 17.7825 8.65719 17.9712C10.9498 18.1599 13.2276 17.4625 15.0221 16.0224L18.6999 19.7024C18.7928 19.7961 18.9034 19.8705 19.0252 19.9213C19.1469 19.972 19.2776 19.9982 19.4095 19.9982C19.5414 19.9982 19.6721 19.972 19.7938 19.9213C19.9156 19.8705 20.0262 19.7961 20.1191 19.7024C20.2992 19.5159 20.3999 19.2667 20.3999 19.0074C20.3999 18.748 20.2992 18.4988 20.1191 18.3124ZM9.41544 16.0224C8.0318 16.0224 6.67922 15.6118 5.52876 14.8427C4.3783 14.0735 3.48163 12.9802 2.95213 11.7011C2.42263 10.4221 2.28409 9.0146 2.55403 7.65673C2.82396 6.29887 3.49025 5.05159 4.46864 4.07262C5.44702 3.09365 6.69356 2.42696 8.05062 2.15687C9.40768 1.88677 10.8143 2.0254 12.0926 2.55521C13.371 3.08502 14.4636 3.98223 15.2323 5.13337C16.001 6.28452 16.4113 7.6379 16.4113 9.02237C16.4113 10.8789 15.6742 12.6594 14.3622 13.9721C13.0503 15.2849 11.2709 16.0224 9.41544 16.0224Z" fill="#7C7C8D"/>
</svg>
